<mxfile host="app.diagrams.net" modified="2023-10-10T15:07:14.345Z" agent="Mozilla/5.0 (X11; Linux x86_64; rv:109.0) Gecko/20100101 Firefox/114.0" etag="YC23RqhCd_P6sU5Qpa-F" version="22.0.4" type="github">
  <diagram name="Página-1" id="wmIi82d7ozcXKBIWZhxb">
    <mxGraphModel dx="1434" dy="795" grid="1" gridSize="10" guides="1" tooltips="1" connect="1" arrows="1" fold="1" page="1" pageScale="1" pageWidth="827" pageHeight="1169" math="0" shadow="0">
      <root>
        <mxCell id="0" />
        <mxCell id="1" parent="0" />
        <mxCell id="2OuDphUxpEpb_LAV9tlj-2" value="Empleado" style="rounded=1;whiteSpace=wrap;html=1;" vertex="1" parent="1">
          <mxGeometry x="270" y="70" width="120" height="60" as="geometry" />
        </mxCell>
        <mxCell id="2OuDphUxpEpb_LAV9tlj-3" value="Profesor" style="rounded=1;whiteSpace=wrap;html=1;" vertex="1" parent="1">
          <mxGeometry x="270" y="160" width="120" height="60" as="geometry" />
        </mxCell>
        <mxCell id="2OuDphUxpEpb_LAV9tlj-4" value="Administración" style="rounded=1;whiteSpace=wrap;html=1;" vertex="1" parent="1">
          <mxGeometry x="430" y="160" width="120" height="60" as="geometry" />
        </mxCell>
        <mxCell id="2OuDphUxpEpb_LAV9tlj-5" value="Mantenimiento" style="rounded=1;whiteSpace=wrap;html=1;" vertex="1" parent="1">
          <mxGeometry x="600" y="160" width="120" height="60" as="geometry" />
        </mxCell>
        <mxCell id="2OuDphUxpEpb_LAV9tlj-6" value="Empleado" style="rounded=1;whiteSpace=wrap;html=1;fillColor=#d5e8d4;strokeColor=#82b366;" vertex="1" parent="1">
          <mxGeometry x="410" y="460" width="120" height="60" as="geometry" />
        </mxCell>
        <mxCell id="2OuDphUxpEpb_LAV9tlj-7" value="" style="endArrow=none;html=1;rounded=0;entryX=0.5;entryY=1;entryDx=0;entryDy=0;" edge="1" parent="1" source="2OuDphUxpEpb_LAV9tlj-9" target="2OuDphUxpEpb_LAV9tlj-6">
          <mxGeometry width="50" height="50" relative="1" as="geometry">
            <mxPoint x="470" y="640" as="sourcePoint" />
            <mxPoint x="500" y="530" as="targetPoint" />
            <Array as="points" />
          </mxGeometry>
        </mxCell>
        <mxCell id="2OuDphUxpEpb_LAV9tlj-14" style="edgeStyle=orthogonalEdgeStyle;rounded=0;orthogonalLoop=1;jettySize=auto;html=1;exitX=0.5;exitY=1;exitDx=0;exitDy=0;exitPerimeter=0;endArrow=none;endFill=0;" edge="1" parent="1" source="2OuDphUxpEpb_LAV9tlj-8">
          <mxGeometry relative="1" as="geometry">
            <mxPoint x="470" y="830" as="targetPoint" />
          </mxGeometry>
        </mxCell>
        <mxCell id="2OuDphUxpEpb_LAV9tlj-8" value="" style="strokeWidth=2;html=1;shape=mxgraph.flowchart.merge_or_storage;whiteSpace=wrap;fillColor=#fff2cc;strokeColor=#d6b656;" vertex="1" parent="1">
          <mxGeometry x="422.5" y="600" width="95" height="60" as="geometry" />
        </mxCell>
        <mxCell id="2OuDphUxpEpb_LAV9tlj-9" value="" style="strokeWidth=2;html=1;shape=mxgraph.flowchart.start_2;whiteSpace=wrap;fillColor=#fff2cc;strokeColor=#d6b656;" vertex="1" parent="1">
          <mxGeometry x="460" y="550" width="20" height="20" as="geometry" />
        </mxCell>
        <mxCell id="2OuDphUxpEpb_LAV9tlj-13" value="" style="endArrow=none;html=1;rounded=0;entryX=0.5;entryY=1;entryDx=0;entryDy=0;entryPerimeter=0;exitX=0.5;exitY=0;exitDx=0;exitDy=0;exitPerimeter=0;" edge="1" parent="1" source="2OuDphUxpEpb_LAV9tlj-8" target="2OuDphUxpEpb_LAV9tlj-9">
          <mxGeometry width="50" height="50" relative="1" as="geometry">
            <mxPoint x="450" y="580" as="sourcePoint" />
            <mxPoint x="500" y="530" as="targetPoint" />
          </mxGeometry>
        </mxCell>
        <mxCell id="2OuDphUxpEpb_LAV9tlj-15" value="Administración" style="rounded=1;whiteSpace=wrap;html=1;fillColor=#d5e8d4;strokeColor=#82b366;" vertex="1" parent="1">
          <mxGeometry x="410" y="800" width="120" height="60" as="geometry" />
        </mxCell>
        <mxCell id="2OuDphUxpEpb_LAV9tlj-16" value="" style="endArrow=none;html=1;rounded=0;entryX=0.5;entryY=1;entryDx=0;entryDy=0;entryPerimeter=0;exitX=0.6;exitY=0.05;exitDx=0;exitDy=0;exitPerimeter=0;" edge="1" parent="1" source="2OuDphUxpEpb_LAV9tlj-20" target="2OuDphUxpEpb_LAV9tlj-8">
          <mxGeometry width="50" height="50" relative="1" as="geometry">
            <mxPoint x="350" y="800" as="sourcePoint" />
            <mxPoint x="500" y="530" as="targetPoint" />
          </mxGeometry>
        </mxCell>
        <mxCell id="2OuDphUxpEpb_LAV9tlj-17" value="" style="endArrow=none;html=1;rounded=0;entryX=0.5;entryY=1;entryDx=0;entryDy=0;entryPerimeter=0;" edge="1" parent="1" target="2OuDphUxpEpb_LAV9tlj-8">
          <mxGeometry width="50" height="50" relative="1" as="geometry">
            <mxPoint x="600" y="800" as="sourcePoint" />
            <mxPoint x="480" y="670" as="targetPoint" />
          </mxGeometry>
        </mxCell>
        <mxCell id="2OuDphUxpEpb_LAV9tlj-18" value="Mantenimiento" style="rounded=1;whiteSpace=wrap;html=1;fillColor=#d5e8d4;strokeColor=#82b366;" vertex="1" parent="1">
          <mxGeometry x="590" y="800" width="120" height="60" as="geometry" />
        </mxCell>
        <mxCell id="2OuDphUxpEpb_LAV9tlj-20" value="Profesor" style="rounded=1;whiteSpace=wrap;html=1;fillColor=#d5e8d4;strokeColor=#82b366;" vertex="1" parent="1">
          <mxGeometry x="250" y="800" width="120" height="60" as="geometry" />
        </mxCell>
        <mxCell id="2OuDphUxpEpb_LAV9tlj-21" value="" style="endArrow=none;html=1;rounded=0;" edge="1" parent="1">
          <mxGeometry width="50" height="50" relative="1" as="geometry">
            <mxPoint x="380" y="690" as="sourcePoint" />
            <mxPoint x="470" y="730" as="targetPoint" />
          </mxGeometry>
        </mxCell>
        <mxCell id="2OuDphUxpEpb_LAV9tlj-22" value="" style="endArrow=none;html=1;rounded=0;" edge="1" parent="1">
          <mxGeometry width="50" height="50" relative="1" as="geometry">
            <mxPoint x="550" y="690" as="sourcePoint" />
            <mxPoint x="470" y="730" as="targetPoint" />
          </mxGeometry>
        </mxCell>
        <mxCell id="2OuDphUxpEpb_LAV9tlj-46" style="edgeStyle=orthogonalEdgeStyle;rounded=0;orthogonalLoop=1;jettySize=auto;html=1;exitX=1;exitY=1;exitDx=0;exitDy=0;entryX=0;entryY=0;entryDx=0;entryDy=0;endArrow=none;endFill=0;" edge="1" parent="1" source="2OuDphUxpEpb_LAV9tlj-23" target="2OuDphUxpEpb_LAV9tlj-6">
          <mxGeometry relative="1" as="geometry" />
        </mxCell>
        <mxCell id="2OuDphUxpEpb_LAV9tlj-23" value="Número" style="ellipse;whiteSpace=wrap;html=1;fontStyle=4;fillColor=#dae8fc;strokeColor=#6c8ebf;" vertex="1" parent="1">
          <mxGeometry x="300" y="380" width="90" height="20" as="geometry" />
        </mxCell>
        <mxCell id="2OuDphUxpEpb_LAV9tlj-47" style="edgeStyle=orthogonalEdgeStyle;rounded=0;orthogonalLoop=1;jettySize=auto;html=1;exitX=1;exitY=1;exitDx=0;exitDy=0;entryX=0.25;entryY=0;entryDx=0;entryDy=0;endArrow=none;endFill=0;" edge="1" parent="1" source="2OuDphUxpEpb_LAV9tlj-24" target="2OuDphUxpEpb_LAV9tlj-6">
          <mxGeometry relative="1" as="geometry" />
        </mxCell>
        <mxCell id="2OuDphUxpEpb_LAV9tlj-24" value="nombre " style="ellipse;whiteSpace=wrap;html=1;fillColor=#dae8fc;strokeColor=#6c8ebf;" vertex="1" parent="1">
          <mxGeometry x="340" y="330" width="100" height="30" as="geometry" />
        </mxCell>
        <mxCell id="2OuDphUxpEpb_LAV9tlj-25" value="apellidos" style="ellipse;whiteSpace=wrap;html=1;fillColor=#dae8fc;strokeColor=#6c8ebf;" vertex="1" parent="1">
          <mxGeometry x="440" y="320" width="90" height="30" as="geometry" />
        </mxCell>
        <mxCell id="2OuDphUxpEpb_LAV9tlj-26" value="dirección" style="ellipse;whiteSpace=wrap;html=1;fillColor=#dae8fc;strokeColor=#6c8ebf;" vertex="1" parent="1">
          <mxGeometry x="517.5" y="340" width="90" height="30" as="geometry" />
        </mxCell>
        <mxCell id="2OuDphUxpEpb_LAV9tlj-50" style="edgeStyle=orthogonalEdgeStyle;rounded=0;orthogonalLoop=1;jettySize=auto;html=1;exitX=0.5;exitY=1;exitDx=0;exitDy=0;entryX=1;entryY=0.75;entryDx=0;entryDy=0;endArrow=none;endFill=0;" edge="1" parent="1" source="2OuDphUxpEpb_LAV9tlj-27" target="2OuDphUxpEpb_LAV9tlj-6">
          <mxGeometry relative="1" as="geometry" />
        </mxCell>
        <mxCell id="2OuDphUxpEpb_LAV9tlj-27" value="fecha" style="ellipse;whiteSpace=wrap;html=1;fillColor=#dae8fc;strokeColor=#6c8ebf;" vertex="1" parent="1">
          <mxGeometry x="550" y="390" width="100" height="30" as="geometry" />
        </mxCell>
        <mxCell id="2OuDphUxpEpb_LAV9tlj-37" style="edgeStyle=orthogonalEdgeStyle;rounded=0;orthogonalLoop=1;jettySize=auto;html=1;exitX=0.5;exitY=0;exitDx=0;exitDy=0;endArrow=none;endFill=0;" edge="1" parent="1" source="2OuDphUxpEpb_LAV9tlj-28" target="2OuDphUxpEpb_LAV9tlj-20">
          <mxGeometry relative="1" as="geometry" />
        </mxCell>
        <mxCell id="2OuDphUxpEpb_LAV9tlj-28" value="especialidad" style="ellipse;whiteSpace=wrap;html=1;fillColor=#dae8fc;strokeColor=#6c8ebf;" vertex="1" parent="1">
          <mxGeometry x="240" y="930" width="100" height="30" as="geometry" />
        </mxCell>
        <mxCell id="2OuDphUxpEpb_LAV9tlj-34" style="edgeStyle=orthogonalEdgeStyle;rounded=0;orthogonalLoop=1;jettySize=auto;html=1;exitX=0.5;exitY=1;exitDx=0;exitDy=0;endArrow=none;endFill=0;" edge="1" parent="1" source="2OuDphUxpEpb_LAV9tlj-29" target="2OuDphUxpEpb_LAV9tlj-20">
          <mxGeometry relative="1" as="geometry" />
        </mxCell>
        <mxCell id="2OuDphUxpEpb_LAV9tlj-29" value="cuerpo" style="ellipse;whiteSpace=wrap;html=1;fillColor=#dae8fc;strokeColor=#6c8ebf;" vertex="1" parent="1">
          <mxGeometry x="200" y="740" width="100" height="30" as="geometry" />
        </mxCell>
        <mxCell id="2OuDphUxpEpb_LAV9tlj-36" style="edgeStyle=orthogonalEdgeStyle;rounded=0;orthogonalLoop=1;jettySize=auto;html=1;exitX=1;exitY=0.5;exitDx=0;exitDy=0;entryX=0;entryY=1;entryDx=0;entryDy=0;endArrow=none;endFill=0;" edge="1" parent="1" source="2OuDphUxpEpb_LAV9tlj-30" target="2OuDphUxpEpb_LAV9tlj-20">
          <mxGeometry relative="1" as="geometry" />
        </mxCell>
        <mxCell id="2OuDphUxpEpb_LAV9tlj-30" value="fecha alta" style="ellipse;whiteSpace=wrap;html=1;fillColor=#dae8fc;strokeColor=#6c8ebf;" vertex="1" parent="1">
          <mxGeometry x="130" y="900" width="100" height="30" as="geometry" />
        </mxCell>
        <mxCell id="2OuDphUxpEpb_LAV9tlj-35" style="edgeStyle=orthogonalEdgeStyle;rounded=0;orthogonalLoop=1;jettySize=auto;html=1;exitX=1;exitY=0.5;exitDx=0;exitDy=0;entryX=0;entryY=0.5;entryDx=0;entryDy=0;endArrow=none;endFill=0;" edge="1" parent="1" source="2OuDphUxpEpb_LAV9tlj-31" target="2OuDphUxpEpb_LAV9tlj-20">
          <mxGeometry relative="1" as="geometry" />
        </mxCell>
        <mxCell id="2OuDphUxpEpb_LAV9tlj-31" value="numero de registro" style="ellipse;whiteSpace=wrap;html=1;fillColor=#dae8fc;strokeColor=#6c8ebf;" vertex="1" parent="1">
          <mxGeometry x="120" y="815" width="100" height="30" as="geometry" />
        </mxCell>
        <mxCell id="2OuDphUxpEpb_LAV9tlj-41" value="" style="endArrow=none;html=1;rounded=0;entryX=0.5;entryY=1;entryDx=0;entryDy=0;entryPerimeter=0;" edge="1" parent="1">
          <mxGeometry width="50" height="50" relative="1" as="geometry">
            <mxPoint x="610" y="810" as="sourcePoint" />
            <mxPoint x="480" y="670" as="targetPoint" />
          </mxGeometry>
        </mxCell>
        <mxCell id="2OuDphUxpEpb_LAV9tlj-48" style="edgeStyle=orthogonalEdgeStyle;rounded=0;orthogonalLoop=1;jettySize=auto;html=1;exitX=0.5;exitY=1;exitDx=0;exitDy=0;entryX=0.575;entryY=-0.017;entryDx=0;entryDy=0;entryPerimeter=0;endArrow=none;endFill=0;" edge="1" parent="1" source="2OuDphUxpEpb_LAV9tlj-25" target="2OuDphUxpEpb_LAV9tlj-6">
          <mxGeometry relative="1" as="geometry" />
        </mxCell>
        <mxCell id="2OuDphUxpEpb_LAV9tlj-49" style="edgeStyle=orthogonalEdgeStyle;rounded=0;orthogonalLoop=1;jettySize=auto;html=1;exitX=0;exitY=1;exitDx=0;exitDy=0;entryX=0.867;entryY=0.05;entryDx=0;entryDy=0;entryPerimeter=0;endArrow=none;endFill=0;" edge="1" parent="1" source="2OuDphUxpEpb_LAV9tlj-26" target="2OuDphUxpEpb_LAV9tlj-6">
          <mxGeometry relative="1" as="geometry" />
        </mxCell>
      </root>
    </mxGraphModel>
  </diagram>
</mxfile>
